<?xml version="1.0" encoding="UTF-8"?>
<!-- Generated by Pixelmator Pro 3.7.1 -->
<svg width="180" height="180" viewBox="0 0 180 180" xmlns="http://www.w3.org/2000/svg">
    <linearGradient id="linearGradient1" x1="0" y1="0" x2="180" y2="180" gradientUnits="userSpaceOnUse">
        <stop offset="1e-05" stop-color="#0d3456" stop-opacity="1"/>
        <stop offset="1" stop-color="#0a2540" stop-opacity="1"/>
    </linearGradient>
    <path id="Path" fill="url(#linearGradient1)" stroke="none" d="M 40 0 L 140 0 C 162.091385 0 180 17.908615 180 40 L 180 140 C 180 162.091385 162.091385 180 140 180 L 40 180 C 17.908609 180 0 162.091385 0 140 L 0 40 C -0 17.908615 17.908609 0 40 0 Z"/>
    <linearGradient id="linearGradient2" x1="25" y1="5" x2="155" y2="135" gradientUnits="userSpaceOnUse">
        <stop offset="1e-05" stop-color="#0088cc" stop-opacity="1"/>
        <stop offset="1" stop-color="#006699" stop-opacity="1"/>
    </linearGradient>
    <path id="path1" fill="url(#linearGradient2)" stroke="none" opacity="0.9" d="M 155 70 C 155 105.898506 125.898506 135 90 135 C 54.10149 135 25 105.898506 25 70 C 25 34.101486 54.10149 5 90 5 C 125.898506 5 155 34.101486 155 70 Z"/>
    <path id="ShipSilhouette" fill="#40e0d0" stroke="none" d="M 87.348907 10.040024 C 90.075935 14.136703 97.424789 8.900681 98.742241 14.944366 C 94.952652 12.358597 90.662491 14.778534 86.455254 14.167404 C 85.054886 16.664108 84.001541 19.366577 82.776222 21.955414 C 86.891335 24.415268 91.184555 27.11467 95.683548 28.628662 C 96.657043 25.625229 94.977219 22.041397 93.592209 19.188461 C 97.784096 21.608398 101.757942 24.384567 105.885338 26.918121 C 106.44426 27.308136 107.368629 27.381836 107.611229 26.595657 C 110.015808 21.844864 112.690628 17.232254 115.039925 12.453796 C 116.62455 16.292526 121.968056 12.272614 124.400276 15.733612 C 120.933136 15.512497 117.49057 16.166626 114.075645 16.661057 C 112.423454 20.65947 110.286057 24.568817 108.92868 28.659363 C 112.334389 31.202133 116.517067 32.620926 119.864441 35.28653 C 124.658234 40.989349 126.034042 49.333191 123.687805 56.362671 C 133.014374 70.194366 147.696732 78.909805 161.574478 87.520828 C 165.551407 87.312004 169.116806 84.806084 173.075302 84.222595 L 173.075302 85.094757 C 158.445145 92.167221 142.93364 97.326469 128.106949 103.861519 C 124.959198 109.985046 121.909714 116.750412 115.697121 120.349609 C 103.360992 123.706184 90.481308 124.062416 77.79509 124.811737 C 64.703506 124.968353 50.758186 125.674683 38.612461 119.907379 C 35.952995 111.139732 31.340384 102.983208 25.336617 96.039734 C 24.734705 94.817474 22.714001 93.699646 23.131653 92.253204 C 39.616673 77.850311 50.368172 58.447868 63.035957 40.912567 C 63.472042 39.702606 61.697018 39.521423 61.297791 38.593979 C 67.052803 39.877655 68.121506 31.77948 72.027794 29.034027 C 71.89267 31.89003 70.043938 34.230118 69.589432 36.966354 C 73.931801 35.602844 76.729462 30.283905 75.077271 25.886276 C 74.177475 21.218384 70.814751 17.683685 68.020164 14.056854 C 72.681908 15.650696 76.453072 18.985779 80.893707 21.024902 C 83.703659 17.815735 85.208435 13.688339 87.348907 10.040024 M 71.754478 41.701813 C 71.109566 42.352859 70.827042 43.550537 71.822029 44.029617 C 76.618904 46.851852 81.191589 50.217636 86.148155 52.69899 C 83.611519 46.956268 77.66304 43.298721 71.754478 41.701813 M 66.939178 42.048828 C 63.883556 48.325912 59.903561 54.108566 56.482491 60.189117 C 49.320965 72.758629 44.447323 86.501259 40.931049 100.489578 C 40.074249 102.012779 36.975628 101.77018 36.763733 103.652679 C 38.225517 104.107193 39.886921 104.18396 41.342564 103.830803 C 45.31641 95.929169 48.731339 87.662094 52.640697 79.686768 C 53.058353 78.535149 54.163902 77.140923 52.981575 76.099854 C 52.008072 74.662643 54.556988 76.588142 54.474072 75.114067 C 59.510475 64.734161 64.206009 54.179199 68.649712 43.538269 C 68.299622 42.893356 67.878899 41.689529 66.939178 42.048828 M 69.93338 45.706375 C 65.557236 53.89975 62.268215 62.762596 58.229877 71.177078 C 57.971916 71.788208 56.915501 73.922531 58.371143 73.468033 C 63.195652 71.760559 67.937248 69.033531 70.811684 64.681953 C 73.79361 58.890083 74.116058 50.7612 69.93338 45.706375 M 91.559219 46.649155 C 90.674782 48.172363 97.86087 52.775764 98.5242 48.765076 C 99.537628 45.110596 93.337318 47.137451 91.559219 46.649155 M 101.281944 48.12323 C 100.501907 49.22879 99.685028 50.583084 99.743378 51.965027 C 104.297646 55.183418 109.380112 57.689339 114.035721 60.80024 C 115.036865 61.349937 114.708267 60.02021 114.444153 59.501205 C 111.6465 54.274406 106.895691 50.057953 101.281944 48.12323 M 121.630257 59.587204 C 120.030266 60.941505 118.485565 62.38179 116.569275 63.290802 C 117.137413 67.627022 116.861031 72.313339 114.428802 76.084503 C 113.848389 77.417305 112.386604 78.946655 113.476799 80.380806 C 116.283676 85.49398 116.197693 91.602158 115.046074 97.163712 C 124.194519 99.875381 134.466949 96.773689 142.930557 93.629013 C 134.491516 83.451782 127.25322 72.141365 122.361137 59.811378 C 122.195313 59.455147 121.952705 59.378372 121.630257 59.587204 M 88.749275 64.209023 C 84.130524 64.221306 90.05751 67.184807 91.460945 66.945267 C 93.533859 64.860069 91.027939 63.502701 88.749275 64.209023 M 94.885094 65.360641 C 94.387589 66.303436 93.721191 67.230865 93.582993 68.311852 C 99.390221 71.907967 105.27729 75.40889 110.946312 79.229187 C 111.855324 79.892517 112.226906 78.105209 111.655708 77.629204 C 108.185509 71.407402 101.742592 66.923767 94.885094 65.360641 M 56.485561 75.203133 C 56.055626 75.924812 55.714748 77.150131 56.657539 77.586205 C 63.819061 82.585762 71.702263 86.409134 79.293732 90.683937 C 80.144386 91.153801 80.635742 90.211006 80.110611 89.544609 C 74.745605 81.627617 65.652435 76.941307 56.485561 75.203133 M 54.572346 80.68483 C 51.974297 87.440987 49.692554 94.501167 47.825401 101.466148 C 53.41151 99.688057 54.704395 92.735352 55.745457 87.652878 C 55.634903 85.549263 56.368866 81.983856 54.572346 80.68483 M 147.233017 86.298584 C 143.990051 86.611816 142.503708 90.978752 144.638031 93.220573 C 148.802277 92.569519 153.024872 90.644012 156.768402 89.237511 C 154.984161 86.614891 150.316284 86.065186 147.233017 86.298584 M 96.804459 90.352272 C 91.731194 91.350334 82.90213 91.12616 82.613457 98.07579 C 92.962662 97.154495 103.37635 96.660065 113.750122 97.473869 C 115.282539 96.534149 113.805397 94.375252 112.834961 93.61058 C 108.348267 90.168015 102.206306 89.888557 96.804459 90.352272 M 78.381645 95.259697 C 74.67498 96.408241 70.937592 97.768692 67.639359 99.853882 C 71.075783 100.19783 74.524498 98.84967 77.896431 98.269257 C 78.9375 97.682709 80.82 94.209419 78.381645 95.259697 M 26.955023 95.944534 C 29.2644 98.748337 31.877804 101.78553 35.062408 103.471497 C 32.808311 100.600136 29.691265 98.385956 26.955023 95.944534 M 66.036308 97.667343 C 60.557682 98.711472 55.131264 100.446587 49.886028 102.261528 C 54.587696 102.203186 59.98341 101.828529 64.709648 100.409729 C 65.744568 100.099564 68.551445 97.30497 66.036308 97.667343 Z"/>
    <path id="path2" fill="none" stroke="#40e0d0" stroke-width="6" stroke-linecap="round" opacity="0.5" d="M 25 140 C 41.666667 133.333333 58.333333 133.333333 75 140 C 91.666667 146.666667 108.333333 146.666667 125 140 C 141.666667 133.333333 151.666667 133.333333 155 140"/>
    <path id="path3" fill="none" stroke="#40e0d0" stroke-width="4" stroke-linecap="round" opacity="0.3" d="M 35 155 C 48.333333 149.666667 61.666667 149.666667 75 155 C 88.333333 160.333333 101.666667 160.333333 115 155 C 128.333333 149.666667 138.333333 149.666667 145 155"/>
</svg>
