<?xml version="1.0" encoding="UTF-8"?>
<!-- Generated by Pixelmator Pro 3.7.1 -->
<svg width="32" height="32" viewBox="0 0 32 32" xmlns="http://www.w3.org/2000/svg">
    <linearGradient id="linearGradient1" x1="1" y1="1" x2="31" y2="31" gradientUnits="userSpaceOnUse">
        <stop offset="1e-05" stop-color="#0088cc" stop-opacity="1"/>
        <stop offset="1" stop-color="#006699" stop-opacity="1"/>
    </linearGradient>
    <path id="Path" fill="url(#linearGradient1)" stroke="#00d4aa" stroke-width="1.5" d="M 31 16 C 31 24.284271 24.284271 31 16 31 C 7.715729 31 1 24.284271 1 16 C 1 7.715729 7.715729 1 16 1 C 24.284271 1 31 7.715729 31 16 Z"/>
    <path id="Path-copy" fill="#000000" stroke="#40e0d0" stroke-width="1.5" stroke-linecap="round" d="M 12 5 L 12 20"/>
    <path id="Path-copy-2" fill="#000000" stroke="#40e0d0" stroke-width="1.5" stroke-linecap="round" d="M 12 4 L 22.000038 9.999935"/>
    <path id="Path-copy-3" fill="#000000" stroke="#40e0d0" stroke-width="1.5" stroke-linecap="round" d="M 12.000071 13.000044 L 22.000008 10.00005"/>
    <path id="path1" fill="none" stroke="#40e0d0" stroke-width="1.5" stroke-linecap="round" opacity="0.7" d="M 6 22 C 8.666667 20.666667 11.333333 20.666667 14 22 C 16.666667 23.333333 19.333333 23.333333 22 22 C 24.666667 20.666667 26 20.666667 26 22"/>
</svg>
